<svg width="331" height="182" viewBox="0 0 331 182" fill="none" xmlns="http://www.w3.org/2000/svg">
<path d="M294.799 115.835C294.799 161.985 254.774 176.306 205.4 176.306C156.026 176.306 116 161.985 116 115.835C116 69.6855 156.026 14.4639 205.4 14.4639C254.774 14.4639 294.799 69.6855 294.799 115.835Z" fill="#BBCD9B"/>
<ellipse cx="164.128" cy="21.82" rx="22.6928" ry="21.82" fill="#BBCD9B"/>
<ellipse cx="248.416" cy="21.82" rx="22.6928" ry="21.82" fill="#BBCD9B"/>
<ellipse cx="164.253" cy="21.9449" rx="6.35897" ry="8.97737" fill="black"/>
<ellipse cx="248.541" cy="21.9449" rx="6.35897" ry="8.97737" fill="black"/>
<path d="M188.566 55.2358C188.566 55.2358 195.3 64.3379 206.896 63.9638C218.492 63.5898 225.723 54.9865 225.723 54.9865" stroke="black" stroke-width="4.98743" stroke-linecap="round"/>
<path d="M249.912 130.31C249.912 153.524 230.821 155.109 207.27 155.109C183.719 155.109 164.627 153.524 164.627 130.31C164.627 107.096 183.719 88.2778 207.27 88.2778C230.821 88.2778 249.912 107.096 249.912 130.31Z" fill="#EFFFC2"/>
<ellipse cx="162.632" cy="51.4953" rx="7.97989" ry="3.61589" fill="#E8655F"/>
<ellipse cx="250.162" cy="51.4953" rx="7.97989" ry="3.61589" fill="#E8655F"/>
<path d="M39 52H77L92 79V156.5L24.5 159.5L21.5 84L39 52Z" fill="#D9D9D9"/>
<path d="M68.5556 99.4444V135.778M44.3333 99.4444V135.778M20.1111 75.2222V147.889C20.1111 151.101 21.3871 154.181 23.6584 156.453C25.9296 158.724 29.0102 160 32.2222 160H80.6667C83.8787 160 86.9592 158.724 89.2305 156.453C91.5018 154.181 92.7778 151.101 92.7778 147.889V75.2222M8 75.2222H104.889M26.1667 75.2222L38.2778 51H74.6111L86.7222 75.2222" stroke="#9C9696" stroke-width="15.1389" stroke-linecap="round" stroke-linejoin="round"/>
<path d="M278 94H293L314 116.5L331 161L247 149.5L278 94Z" fill="#D9D9D9"/>
<path d="M275.287 99.5527C268.451 96.3842 263.117 90.6808 260.412 83.6492C260.087 82.6973 260.453 82.386 261.666 82.1965C263.812 81.9463 265.986 82.1965 268.019 82.9274C269.129 83.27 270.219 83.6737 271.285 84.1365C272.211 84.5604 273.222 84.7696 274.24 84.7485C275.259 84.7274 276.26 84.4766 277.168 84.0147C278.711 83.2838 280.213 82.5033 281.811 81.8491C283.045 81.3001 284.378 81.0112 285.729 81.0003C287.08 80.9895 288.418 81.2569 289.661 81.7859C294.47 83.8564 299.829 84.2753 304.901 82.977C306.173 82.687 307.461 82.4761 308.758 82.3454C311.086 82.1108 311.741 82.7244 310.992 84.3305C308.277 90.1994 303.917 95.1538 298.44 98.5917C298.102 98.8083 297.827 99.079 297.191 99.5843C297.679 99.7922 298.155 100.029 298.616 100.293C309.759 107.284 319.055 116.855 325.718 128.197C328.23 133.001 329.696 138.283 330.017 143.694C330.416 148.678 330.627 153.674 330.649 158.673C330.662 162.78 329.644 166.824 327.689 170.435C324.364 176.593 317.994 179.751 309.453 180.73C307.537 180.917 305.612 181.001 303.687 180.983C291.605 181.006 279.523 181.042 267.441 180.974C261.42 181.208 255.472 179.592 250.396 176.345C246.738 173.765 244.179 169.908 243.223 165.535C241.91 159.704 241.652 153.686 242.46 147.764C242.739 143.821 243.277 139.901 244.071 136.029C246.419 127.847 250.915 120.443 257.091 114.585C262.427 108.99 268.409 104.05 274.912 99.8685C275.043 99.7701 275.168 99.6647 275.287 99.5527ZM287.17 121.966C289.088 114.919 289.751 107.588 289.128 100.311C289.083 99.5843 288.61 99.3407 287.667 99.3768C286.452 99.4693 285.231 99.4633 284.017 99.3587C282.456 99.1116 280.858 99.2587 279.369 99.7866C277.88 100.315 276.546 101.207 275.49 102.382C266.773 110.476 261.375 121.521 260.344 133.372C260.209 134.77 260.326 136.187 260.326 137.902C260.48 137.41 260.552 137.207 260.601 136.999C262.377 130.005 265.131 123.296 268.781 117.071C272.31 110.749 277.254 105.329 283.227 101.236C283.615 100.978 284.039 100.753 284.454 100.514L284.996 100.617L287.17 121.966ZM289.539 99.5302C307.82 115.14 314.939 133.985 318.77 153.832C318.837 153.043 318.852 152.25 318.815 151.459C318.522 147.489 318.386 143.509 317.849 139.557C316.618 130.039 313.104 120.96 307.608 113.092C304.362 108.456 300.385 104.377 295.833 101.014C294.971 100.295 293.954 99.7858 292.861 99.5282C291.769 99.2705 290.631 99.2712 289.539 99.5302Z" fill="black"/>
<path d="M122.065 42.9547C120.909 43.3939 119.756 43.8414 118.607 44.2973C117.133 44.8837 116.595 45.8649 116.958 46.9949C117.403 48.3857 117.978 49.7271 118.536 51.1969L130.068 46.8185C129.493 45.3045 129.01 43.836 128.372 42.4293C127.923 41.4359 126.854 41.1901 125.538 41.6687C124.376 42.0882 123.218 42.5168 122.065 42.9547ZM120.365 51.6959C121.474 52.8912 120.778 53.974 119.868 55.1053C119.285 55.833 118.776 56.6175 118.349 57.447C115.808 62.4746 115.436 67.1699 118.687 71.2961C119.268 72.034 119.906 72.1848 121.134 71.7036C127.458 69.2312 133.817 66.8525 140.165 64.4425C143.565 63.1516 143.787 62.8289 143.181 60.0321C143.117 59.7731 143.034 59.5189 142.934 59.2717C142.041 57.0878 140.612 55.1644 138.779 53.6794C136.946 52.1944 134.768 51.1959 132.446 50.7763C130.895 50.3831 128.926 50.3953 128.914 48.4504L120.365 51.6959ZM122.383 55.3647C122.487 55.3198 122.594 55.2813 122.703 55.2494C121.699 57.4436 120.916 59.7328 120.368 62.0827C120.293 64.2933 120.481 66.505 120.929 68.671C117.806 65.5409 119.167 56.7704 122.383 55.3647ZM120.46 72.9238L128.379 93.7823L151.08 85.1637L143.16 64.3052L120.46 72.9238ZM124.108 74.0331L124.655 73.8371C124.909 74.1545 125.128 74.4987 125.307 74.8636C127.089 79.5091 128.848 84.1661 130.611 88.8185C130.733 89.0564 130.81 89.3142 130.841 89.5797C130.842 89.7637 130.644 89.9726 130.535 90.1717C130.314 90.113 129.996 90.1146 129.889 89.9825C129.719 89.7206 129.591 89.4342 129.507 89.1334C127.772 84.5626 126.03 79.9974 124.313 75.4197C124.196 74.966 124.127 74.5013 124.108 74.0331ZM150.759 86.3958C147.24 87.8061 143.674 89.1152 140.128 90.4615L130.295 94.1949C127.844 95.1253 127.334 95.7804 127.998 97.7399C128.944 100.517 129.986 103.26 131.121 105.966C131.714 107.38 133.232 107.983 135.114 107.632C136.883 107.299 138.918 107.021 139.573 105.016C139.858 104.151 140.494 103.961 141.372 104.265C142.862 104.788 146.624 104.223 147.323 103.005C148.487 100.977 149.436 101.03 151.648 101.33C152.36 101.388 153.076 101.293 153.748 101.051C154.42 100.81 155.033 100.427 155.544 99.9286C156.056 99.4304 156.455 98.8283 156.714 98.163C156.974 97.4976 157.088 96.7844 157.048 96.0713C156.145 93.2819 155.1 90.5403 153.918 87.8573C153.67 87.4274 153.359 87.0368 152.996 86.6984C152.458 86.0661 151.82 85.9691 150.759 86.3958ZM131.195 96.4398C131.492 96.6099 131.941 96.7129 132.049 96.9639C132.554 98.0995 132.965 99.2768 133.408 100.442C133.834 101.563 134.287 102.68 134.661 103.821C134.738 104.054 134.507 104.394 134.418 104.687C134.106 104.547 133.597 104.484 133.509 104.259C132.593 101.992 131.724 99.7073 130.901 97.4057C130.809 97.1549 131.088 96.763 131.195 96.4398Z" fill="#9EA9C6"/>
</svg>
