<svg width="289" height="442" viewBox="0 0 289 442" fill="none" xmlns="http://www.w3.org/2000/svg">
<g filter="url(#filter0_d_3_1516)">
<path d="M268.921 232.984C268.921 297.216 213.213 317.148 144.494 317.148C75.7752 317.148 20.0674 297.216 20.0674 232.984C20.0674 168.753 75.7752 91.895 144.494 91.895C213.213 91.895 268.921 168.753 268.921 232.984Z" fill="#BBCD9B"/>
<ellipse cx="87.0537" cy="102.134" rx="31.584" ry="30.3692" fill="#BBCD9B"/>
<ellipse cx="204.365" cy="102.134" rx="31.584" ry="30.3692" fill="#BBCD9B"/>
<ellipse cx="87.2264" cy="102.307" rx="8.85045" ry="12.4948" fill="black"/>
<ellipse cx="204.539" cy="102.307" rx="8.85045" ry="12.4948" fill="black"/>
<path d="M121.065 148.642C121.065 148.642 130.438 161.31 146.577 160.79C162.716 160.269 172.78 148.295 172.78 148.295" stroke="black" stroke-width="6.94153" stroke-linecap="round"/>
<path d="M206.447 253.13C206.447 285.439 179.875 287.646 147.097 287.646C114.319 287.646 87.7471 285.439 87.7471 253.13C87.7471 220.821 114.319 194.629 147.097 194.629C179.875 194.629 206.447 220.821 206.447 253.13Z" fill="#EFFFC2"/>
<ellipse cx="84.9707" cy="143.436" rx="11.1064" ry="5.03261" fill="#E8655F"/>
<ellipse cx="206.795" cy="143.436" rx="11.1064" ry="5.03261" fill="#E8655F"/>
<rect x="26.6396" y="229.511" width="238.81" height="182.577" fill="#BBD0CF"/>
<path d="M4 216.365H284.438V397.116C284.438 417.055 263.478 433.266 237.698 433.266H50.7396C24.9598 433.266 4 417.055 4 397.116V216.365ZM74.1094 252.515C67.6827 252.515 62.4245 256.582 62.4245 261.553V388.079C62.4245 393.049 67.6827 397.116 74.1094 397.116C80.5361 397.116 85.7943 393.049 85.7943 388.079V261.553C85.7943 256.582 80.5361 252.515 74.1094 252.515ZM144.219 252.515C137.792 252.515 132.534 256.582 132.534 261.553V388.079C132.534 393.049 137.792 397.116 144.219 397.116C150.646 397.116 155.904 393.049 155.904 388.079V261.553C155.904 256.582 150.646 252.515 144.219 252.515ZM214.328 252.515C207.902 252.515 202.643 256.582 202.643 261.553V388.079C202.643 393.049 207.902 397.116 214.328 397.116C220.755 397.116 226.013 393.049 226.013 388.079V261.553C226.013 256.582 220.755 252.515 214.328 252.515Z" fill="#B3ABAB"/>
<path d="M100.244 16.902C93.8895 17.6216 88.6192 23.2163 86.6792 31.4472L84.0733 42.2525L33.6591 47.9618C24.364 49.0145 18.0296 60.242 19.4842 73.0863C20.9388 85.9306 29.6236 95.4572 38.9187 94.4046L240.575 71.5672C249.871 70.5145 256.205 59.287 254.75 46.4427C253.296 33.5984 244.611 24.0718 235.316 25.1245L184.902 30.8338L179.945 20.8849C176.214 13.2963 169.826 9.02191 163.472 9.74153L100.244 16.902Z" fill="#B3ABAB"/>
</g>
<defs>
<filter id="filter0_d_3_1516" x="0" y="9.66309" width="288.438" height="431.603" filterUnits="userSpaceOnUse" color-interpolation-filters="sRGB">
<feFlood flood-opacity="0" result="BackgroundImageFix"/>
<feColorMatrix in="SourceAlpha" type="matrix" values="0 0 0 0 0 0 0 0 0 0 0 0 0 0 0 0 0 0 127 0" result="hardAlpha"/>
<feOffset dy="4"/>
<feGaussianBlur stdDeviation="2"/>
<feComposite in2="hardAlpha" operator="out"/>
<feColorMatrix type="matrix" values="0 0 0 0 0 0 0 0 0 0 0 0 0 0 0 0 0 0 0.25 0"/>
<feBlend mode="normal" in2="BackgroundImageFix" result="effect1_dropShadow_3_1516"/>
<feBlend mode="normal" in="SourceGraphic" in2="effect1_dropShadow_3_1516" result="shape"/>
</filter>
</defs>
</svg>
