<svg width="77" height="77" viewBox="0 0 77 77" fill="none" xmlns="http://www.w3.org/2000/svg">
<path fill-rule="evenodd" clip-rule="evenodd" d="M45.4452 10.4271C42.3588 5.07881 34.6396 5.07881 31.5532 10.4271L27.0711 18.1913C26.443 19.296 26.2773 20.6044 26.6103 21.8308C26.9433 23.0572 27.7478 24.1022 28.8484 24.7376C29.9489 25.373 31.2562 25.5473 32.4848 25.2225C33.7134 24.8977 34.7636 24.1001 35.4064 23.0038L38.4992 17.6458L45.6217 29.9851C44.4976 30.092 43.4468 30.5908 42.6533 31.3943C41.8598 32.1977 41.3741 33.2546 41.2812 34.38C41.1883 35.5053 41.4941 36.6276 42.145 37.5503C42.796 38.473 43.7507 39.1374 44.8421 39.4272L54.1398 41.9169C54.837 42.1087 55.5688 42.1388 56.2794 42.0048C56.99 41.8708 57.6606 41.5763 58.2401 41.1437C59.1191 40.4956 59.7416 39.6037 60.0367 38.5128L62.5264 29.2183C62.8192 28.1287 62.7198 26.971 62.2457 25.9472C61.7716 24.9234 60.9529 24.0988 59.9326 23.6173C58.9123 23.1358 57.7553 23.0281 56.6636 23.3129C55.572 23.5978 54.6151 24.2572 53.9602 25.1758L45.4452 10.4271ZM6.5474 53.7396L15.0591 38.9941C13.935 38.8872 12.8842 38.3883 12.0907 37.5849C11.2973 36.7815 10.8116 35.7246 10.7186 34.5992C10.6257 33.4739 10.9315 32.3516 11.5824 31.4289C12.2334 30.5062 13.1881 29.8418 14.2795 29.552L23.5772 27.0623C24.8097 26.7347 26.1217 26.9085 27.2262 27.5459C28.3308 28.1832 29.1379 29.2322 29.4709 30.4631L31.9638 39.7641C32.2566 40.8537 32.1572 42.0114 31.6831 43.0352C31.209 44.059 30.3903 44.8836 29.37 45.3651C28.3497 45.8466 27.1927 45.9543 26.101 45.6695C25.0094 45.3846 24.0525 44.7252 23.3976 43.8066L16.2719 56.1458H22.4575C23.7339 56.1458 24.958 56.6529 25.8605 57.5554C26.763 58.4579 27.27 59.682 27.27 60.9583C27.27 62.2347 26.763 63.4588 25.8605 64.3613C24.958 65.2638 23.7339 65.7708 22.4575 65.7708H13.4934C7.3174 65.7708 3.46098 59.0879 6.5474 53.7396ZM65.9689 45.9754C65.3262 44.8791 64.276 44.0815 63.0474 43.7567C61.8187 43.4319 60.5115 43.6062 59.411 44.2416C58.3104 44.877 57.5059 45.922 57.1729 47.1484C56.8399 48.3748 57.0056 49.6832 57.6337 50.7879L60.7265 56.1458H46.4815C46.9507 55.119 47.0439 53.9598 46.7448 52.8711C46.4457 51.7825 45.7734 50.8336 44.8455 50.1905C43.9176 49.5475 42.7931 49.2511 41.6687 49.3532C40.5444 49.4554 39.4917 49.9496 38.6949 50.7494L31.9125 57.5318C31.027 58.4045 30.4784 59.6173 30.4784 60.9583C30.4784 62.2802 30.9917 63.4801 31.9125 64.3881L38.6949 71.1673C39.4922 71.9648 40.5443 72.457 41.6674 72.558C42.7906 72.6589 43.9136 72.3622 44.8404 71.7197C45.7671 71.0772 46.4388 70.1296 46.7382 69.0423C47.0375 67.9551 46.9456 66.7972 46.4783 65.7708H63.5049C69.681 65.7708 73.5406 59.0879 70.451 53.7396L65.9689 45.9754Z" fill="black"/>
</svg>
