<svg width="153" height="168" viewBox="0 0 153 168" fill="none" xmlns="http://www.w3.org/2000/svg">
<path fill-rule="evenodd" clip-rule="evenodd" d="M7.40323 123.148C9.36668 123.148 11.2497 123.928 12.6381 125.316C14.0265 126.704 14.8065 128.587 14.8065 130.551V150.293C14.8065 151.655 15.912 152.76 17.2742 152.76H135.726C136.38 152.76 137.008 152.501 137.471 152.038C137.934 151.575 138.194 150.947 138.194 150.293V130.551C138.194 128.587 138.974 126.704 140.362 125.316C141.75 123.928 143.633 123.148 145.597 123.148C147.56 123.148 149.443 123.928 150.832 125.316C152.22 126.704 153 128.587 153 130.551V150.293C153 154.874 151.18 159.268 147.941 162.507C144.701 165.747 140.307 167.567 135.726 167.567H17.2742C12.6928 167.567 8.29904 165.747 5.05949 162.507C1.81996 159.268 0 154.874 0 150.293V130.551C0 128.587 0.77998 126.704 2.16835 125.316C3.55673 123.928 5.43977 123.148 7.40323 123.148ZM64.0428 121.933C61.5931 121.936 59.2316 121.019 57.4243 119.365C55.617 117.712 54.4953 115.441 54.2804 113C52.768 95.7017 52.5041 78.3167 53.4908 60.9802C51.0513 60.8438 48.6131 60.6858 46.1764 60.5064L31.4686 59.4305C30.1733 59.3356 28.9249 58.906 27.8454 58.1838C26.7659 57.4616 25.8924 56.4716 25.3104 55.3105C24.7284 54.1494 24.4578 52.8571 24.525 51.5601C24.5923 50.2631 24.9951 49.0057 25.6941 47.9111C36.176 31.5043 49.6825 17.2407 65.4939 5.8805L71.3868 1.64586C72.877 0.575658 74.6654 0 76.5 0C78.3346 0 80.123 0.575658 81.6132 1.64586L87.5061 5.89037C103.316 17.2478 116.823 31.508 127.306 47.9111C128.005 49.0057 128.408 50.2631 128.475 51.5601C128.542 52.8571 128.272 54.1494 127.69 55.3105C127.108 56.4716 126.234 57.4616 125.155 58.1838C124.075 58.906 122.827 59.3356 121.531 59.4305L106.824 60.5064C104.395 60.6841 101.957 60.8421 99.5191 60.9704C100.506 78.3137 100.23 95.6964 98.7097 112.99C98.4973 115.431 97.378 117.703 95.5726 119.358C93.7671 121.014 91.4068 121.933 88.9572 121.933H64.0428Z" fill="black"/>
</svg>
